<?xml version="1.0" encoding="utf-8" standalone="no"?>
<!DOCTYPE svg PUBLIC "-//W3C//DTD SVG 1.1//EN"
  "http://www.w3.org/Graphics/SVG/1.1/DTD/svg11.dtd">
<svg xmlns:xlink="http://www.w3.org/1999/xlink" width="354.137553pt" height="344.397679pt" viewBox="0 0 354.137553 344.397679" xmlns="http://www.w3.org/2000/svg" version="1.1">
 <metadata>
  <rdf:RDF xmlns:dc="http://purl.org/dc/elements/1.1/" xmlns:cc="http://creativecommons.org/ns#" xmlns:rdf="http://www.w3.org/1999/02/22-rdf-syntax-ns#">
   <cc:Work>
    <dc:type rdf:resource="http://purl.org/dc/dcmitype/StillImage"/>
    <dc:date>2024-08-21T16:18:59.768011</dc:date>
    <dc:format>image/svg+xml</dc:format>
    <dc:creator>
     <cc:Agent>
      <dc:title>Matplotlib v3.8.0, https://matplotlib.org/</dc:title>
     </cc:Agent>
    </dc:creator>
   </cc:Work>
  </rdf:RDF>
 </metadata>
 <defs>
  <style type="text/css">*{stroke-linejoin: round; stroke-linecap: butt}</style>
 </defs>
 <g id="figure_1">
  <g id="patch_1">
   <path d="M 0 344.397679 
L 354.137553 344.397679 
L 354.137553 0 
L 0 0 
z
" style="fill: #ffffff"/>
  </g>
  <g id="axes_1">
   <g id="patch_2">
    <path d="M 322.065443 172.19884 
C 322.065443 153.998055 318.480285 135.974249 311.515146 119.158916 
C 304.550007 102.343583 294.340342 87.063739 281.470443 74.19384 
C 268.600544 61.323941 253.3207 51.114275 236.505367 44.149137 
C 219.690034 37.183998 201.666228 33.59884 183.465443 33.59884 
C 165.264658 33.59884 147.240852 37.183998 130.425519 44.149137 
C 113.610186 51.114275 98.330342 61.323941 85.460443 74.19384 
C 72.590545 87.063739 62.380879 102.343583 55.41574 119.158916 
C 48.450601 135.974249 44.865443 153.998055 44.865443 172.19884 
C 44.865443 190.399625 48.450601 208.423431 55.41574 225.238763 
C 62.380879 242.054096 72.590545 257.333941 85.460443 270.20384 
C 98.330342 283.073738 113.610186 293.283404 130.425519 300.248543 
C 147.240852 307.213682 165.264658 310.79884 183.465443 310.79884 
C 201.666228 310.79884 219.690034 307.213682 236.505367 300.248543 
C 253.3207 293.283404 268.600544 283.073738 281.470443 270.20384 
C 294.340342 257.333941 304.550007 242.054096 311.515146 225.238763 
C 318.480285 208.423431 322.065443 190.399625 322.065443 172.19884 
M 183.465443 172.19884 
C 183.465443 172.19884 183.465443 172.19884 183.465443 172.19884 
C 183.465443 172.19884 183.465443 172.19884 183.465443 172.19884 
C 183.465443 172.19884 183.465443 172.19884 183.465443 172.19884 
C 183.465443 172.19884 183.465443 172.19884 183.465443 172.19884 
C 183.465443 172.19884 183.465443 172.19884 183.465443 172.19884 
C 183.465443 172.19884 183.465443 172.19884 183.465443 172.19884 
C 183.465443 172.19884 183.465443 172.19884 183.465443 172.19884 
C 183.465443 172.19884 183.465443 172.19884 183.465443 172.19884 
C 183.465443 172.19884 183.465443 172.19884 183.465443 172.19884 
C 183.465443 172.19884 183.465443 172.19884 183.465443 172.19884 
C 183.465443 172.19884 183.465443 172.19884 183.465443 172.19884 
C 183.465443 172.19884 183.465443 172.19884 183.465443 172.19884 
C 183.465443 172.19884 183.465443 172.19884 183.465443 172.19884 
C 183.465443 172.19884 183.465443 172.19884 183.465443 172.19884 
C 183.465443 172.19884 183.465443 172.19884 183.465443 172.19884 
C 183.465443 172.19884 183.465443 172.19884 183.465443 172.19884 
z
" style="fill: #ffffff"/>
   </g>
   <g id="matplotlib.axis_1">
    <g id="xtick_1">
     <g id="line2d_1">
      <path d="M 183.465443 172.19884 
L 322.065443 172.19884 
" clip-path="url(#p90552a7f47)" style="fill: none; stroke: #b0b0b0; stroke-width: 0.8; stroke-linecap: square"/>
     </g>
     <g id="text_1">
      <!-- 0° -->
      <g transform="translate(325.193334 179.171799) scale(0.28 -0.28)">
       <defs>
        <path id="CMR17-30" d="M 2688 2038 
C 2688 2430 2682 3099 2413 3613 
C 2176 4063 1798 4224 1466 4224 
C 1158 4224 768 4082 525 3620 
C 269 3137 243 2539 243 2038 
C 243 1671 250 1112 448 623 
C 723 -39 1216 -128 1466 -128 
C 1760 -128 2208 -7 2470 604 
C 2662 1048 2688 1568 2688 2038 
z
M 1466 -26 
C 1056 -26 813 328 723 816 
C 653 1196 653 1749 653 2109 
C 653 2604 653 3015 736 3407 
C 858 3954 1216 4121 1466 4121 
C 1728 4121 2067 3947 2189 3420 
C 2272 3054 2278 2623 2278 2109 
C 2278 1691 2278 1176 2202 797 
C 2067 96 1690 -26 1466 -26 
z
" transform="scale(0.015625)"/>
        <path id="SFRM3583-b0" d="M 890 4352 
C 544 4307 326 4017 326 3711 
C 326 3387 576 3072 960 3072 
L 1018 3072 
C 1357 3116 1587 3406 1587 3711 
C 1587 4043 1312 4352 947 4352 
L 890 4352 
z
M 525 3673 
L 525 3711 
C 525 3939 723 4140 947 4147 
C 1178 4147 1338 3965 1382 3750 
L 1382 3711 
C 1382 3484 1184 3283 960 3276 
C 730 3276 570 3458 525 3673 
z
" transform="scale(0.015625)"/>
       </defs>
       <use xlink:href="#CMR17-30" transform="scale(0.996264)"/>
       <use xlink:href="#SFRM3583-b0" transform="translate(45.690477 0) scale(0.356961)"/>
      </g>
     </g>
    </g>
    <g id="xtick_2">
     <g id="line2d_2">
      <path d="M 183.465443 172.19884 
L 281.470443 74.19384 
" clip-path="url(#p90552a7f47)" style="fill: none; stroke: #b0b0b0; stroke-width: 0.8; stroke-linecap: square"/>
     </g>
     <g id="text_2">
      <!-- 45° -->
      <g transform="translate(274.101162 71.267304) scale(0.28 -0.28)">
       <defs>
        <path id="CMR17-34" d="M 2150 4147 
C 2150 4281 2144 4288 2029 4288 
L 128 1254 
L 128 1088 
L 1779 1088 
L 1779 460 
C 1779 230 1766 166 1318 166 
L 1197 166 
L 1197 0 
C 1402 12 1747 12 1965 12 
C 2182 12 2528 12 2733 0 
L 2733 166 
L 2611 166 
C 2163 166 2150 230 2150 460 
L 2150 1088 
L 2803 1088 
L 2803 1254 
L 2150 1254 
L 2150 4147 
z
M 1798 3723 
L 1798 1254 
L 256 1254 
L 1798 3723 
z
" transform="scale(0.015625)"/>
        <path id="CMR17-35" d="M 730 3750 
C 794 3724 1056 3641 1325 3641 
C 1920 3641 2246 3961 2432 4140 
C 2432 4191 2432 4224 2394 4224 
C 2387 4224 2374 4224 2323 4198 
C 2099 4102 1837 4032 1517 4032 
C 1325 4032 1037 4055 723 4191 
C 653 4224 640 4224 634 4224 
C 602 4224 595 4217 595 4090 
L 595 2231 
C 595 2113 595 2080 659 2080 
C 691 2080 704 2093 736 2139 
C 941 2435 1222 2560 1542 2560 
C 1766 2560 2246 2415 2246 1293 
C 2246 1087 2246 716 2054 422 
C 1894 159 1645 25 1370 25 
C 947 25 518 319 403 812 
C 429 806 480 793 506 793 
C 589 793 749 838 749 1036 
C 749 1209 627 1280 506 1280 
C 358 1280 262 1190 262 1011 
C 262 454 704 -128 1382 -128 
C 2042 -128 2669 441 2669 1267 
C 2669 2054 2170 2662 1549 2662 
C 1222 2662 947 2540 730 2304 
L 730 3750 
z
" transform="scale(0.015625)"/>
       </defs>
       <use xlink:href="#CMR17-34" transform="scale(0.996264)"/>
       <use xlink:href="#CMR17-35" transform="translate(45.690477 0) scale(0.996264)"/>
       <use xlink:href="#SFRM3583-b0" transform="translate(91.380954 0) scale(0.356961)"/>
      </g>
     </g>
    </g>
    <g id="xtick_3">
     <g id="line2d_3">
      <path d="M 183.465443 172.19884 
L 183.465443 33.59884 
" clip-path="url(#p90552a7f47)" style="fill: none; stroke: #b0b0b0; stroke-width: 0.8; stroke-linecap: square"/>
     </g>
     <g id="text_3">
      <!-- 90° -->
      <g transform="translate(166.196667 26.571799) scale(0.28 -0.28)">
       <defs>
        <path id="CMR17-39" d="M 2253 1871 
C 2253 448 1670 25 1190 25 
C 1043 25 685 43 538 281 
C 704 256 826 345 826 505 
C 826 678 685 736 595 736 
C 538 736 365 710 365 492 
C 365 68 742 -128 1203 -128 
C 1939 -128 2688 665 2688 2090 
C 2688 3857 1971 4224 1485 4224 
C 851 4224 243 3664 243 2800 
C 243 2000 762 1408 1414 1408 
C 1952 1408 2189 1910 2253 2122 
L 2253 1871 
z
M 1427 1510 
C 1254 1510 1011 1542 813 1929 
C 678 2181 678 2477 678 2793 
C 678 3174 678 3438 858 3722 
C 947 3857 1114 4076 1485 4076 
C 2240 4076 2240 2909 2240 2651 
C 2240 2193 2035 1510 1427 1510 
z
" transform="scale(0.015625)"/>
       </defs>
       <use xlink:href="#CMR17-39" transform="scale(0.996264)"/>
       <use xlink:href="#CMR17-30" transform="translate(45.690477 0) scale(0.996264)"/>
       <use xlink:href="#SFRM3583-b0" transform="translate(91.380954 0) scale(0.356961)"/>
      </g>
     </g>
    </g>
    <g id="xtick_4">
     <g id="line2d_4">
      <path d="M 183.465443 172.19884 
L 85.460443 74.19384 
" clip-path="url(#p90552a7f47)" style="fill: none; stroke: #b0b0b0; stroke-width: 0.8; stroke-linecap: square"/>
     </g>
     <g id="text_4">
      <!-- 135° -->
      <g transform="translate(51.895505 71.267304) scale(0.28 -0.28)">
       <defs>
        <path id="CMR17-31" d="M 1702 4083 
C 1702 4217 1696 4224 1606 4224 
C 1357 3927 979 3833 621 3820 
C 602 3820 570 3820 563 3808 
C 557 3795 557 3782 557 3648 
C 755 3648 1088 3686 1344 3839 
L 1344 467 
C 1344 243 1331 166 781 166 
L 589 166 
L 589 0 
C 896 6 1216 12 1523 12 
C 1830 12 2150 6 2458 0 
L 2458 166 
L 2266 166 
C 1715 166 1702 236 1702 467 
L 1702 4083 
z
" transform="scale(0.015625)"/>
        <path id="CMR17-33" d="M 1414 2176 
C 1984 2176 2234 1673 2234 1094 
C 2234 322 1824 25 1453 25 
C 1114 25 563 193 390 691 
C 422 678 454 678 486 678 
C 640 678 755 780 755 947 
C 755 1132 614 1216 486 1216 
C 378 1216 211 1164 211 927 
C 211 335 787 -128 1466 -128 
C 2176 -128 2720 432 2720 1087 
C 2720 1718 2208 2176 1600 2246 
C 2086 2347 2554 2776 2554 3353 
C 2554 3856 2048 4224 1472 4224 
C 890 4224 378 3862 378 3347 
C 378 3123 544 3084 627 3084 
C 762 3084 877 3167 877 3334 
C 877 3500 762 3584 627 3584 
C 602 3584 570 3584 544 3571 
C 730 3999 1235 4076 1459 4076 
C 1683 4076 2106 3966 2106 3347 
C 2106 3167 2080 2851 1862 2574 
C 1670 2329 1453 2316 1242 2297 
C 1210 2297 1062 2284 1037 2284 
C 992 2278 966 2272 966 2227 
C 966 2182 973 2176 1101 2176 
L 1414 2176 
z
" transform="scale(0.015625)"/>
       </defs>
       <use xlink:href="#CMR17-31" transform="scale(0.996264)"/>
       <use xlink:href="#CMR17-33" transform="translate(45.690477 0) scale(0.996264)"/>
       <use xlink:href="#CMR17-35" transform="translate(91.380954 0) scale(0.996264)"/>
       <use xlink:href="#SFRM3583-b0" transform="translate(137.071431 0) scale(0.356961)"/>
      </g>
     </g>
    </g>
    <g id="xtick_5">
     <g id="line2d_5">
      <path d="M 183.465443 172.19884 
L 44.865443 172.19884 
" clip-path="url(#p90552a7f47)" style="fill: none; stroke: #b0b0b0; stroke-width: 0.8; stroke-linecap: square"/>
     </g>
     <g id="text_5">
      <!-- 180° -->
      <g transform="translate(7.2 179.171799) scale(0.28 -0.28)">
       <defs>
        <path id="CMR17-38" d="M 1741 2289 
C 2144 2494 2554 2803 2554 3298 
C 2554 3884 1990 4224 1472 4224 
C 890 4224 378 3800 378 3215 
C 378 3054 416 2777 666 2533 
C 730 2469 998 2276 1171 2154 
C 883 2006 211 1652 211 945 
C 211 282 838 -128 1459 -128 
C 2144 -128 2720 366 2720 1022 
C 2720 1607 2330 1877 2074 2051 
L 1741 2289 
z
M 902 2855 
C 851 2887 595 3086 595 3388 
C 595 3781 998 4076 1459 4076 
C 1965 4076 2336 3716 2336 3298 
C 2336 2700 1670 2359 1638 2359 
C 1632 2359 1626 2359 1574 2398 
L 902 2855 
z
M 2080 1536 
C 2176 1466 2483 1253 2483 861 
C 2483 385 2010 25 1472 25 
C 890 25 448 443 448 951 
C 448 1459 838 1884 1280 2083 
L 2080 1536 
z
" transform="scale(0.015625)"/>
       </defs>
       <use xlink:href="#CMR17-31" transform="scale(0.996264)"/>
       <use xlink:href="#CMR17-38" transform="translate(45.690477 0) scale(0.996264)"/>
       <use xlink:href="#CMR17-30" transform="translate(91.380954 0) scale(0.996264)"/>
       <use xlink:href="#SFRM3583-b0" transform="translate(137.071431 0) scale(0.356961)"/>
      </g>
     </g>
    </g>
    <g id="xtick_6">
     <g id="line2d_6">
      <path d="M 183.465443 172.19884 
L 85.460443 270.20384 
" clip-path="url(#p90552a7f47)" style="fill: none; stroke: #b0b0b0; stroke-width: 0.8; stroke-linecap: square"/>
     </g>
     <g id="text_6">
      <!-- 225° -->
      <g transform="translate(51.895505 287.076293) scale(0.28 -0.28)">
       <defs>
        <path id="CMR17-32" d="M 2669 990 
L 2554 990 
C 2490 537 2438 460 2413 422 
C 2381 371 1920 371 1830 371 
L 602 371 
C 832 620 1280 1073 1824 1596 
C 2214 1966 2669 2400 2669 3033 
C 2669 3788 2067 4224 1395 4224 
C 691 4224 262 3603 262 3027 
C 262 2777 448 2745 525 2745 
C 589 2745 781 2783 781 3007 
C 781 3206 614 3264 525 3264 
C 486 3264 448 3257 422 3244 
C 544 3788 915 4057 1306 4057 
C 1862 4057 2227 3616 2227 3033 
C 2227 2477 1901 1998 1536 1583 
L 262 147 
L 262 0 
L 2515 0 
L 2669 990 
z
" transform="scale(0.015625)"/>
       </defs>
       <use xlink:href="#CMR17-32" transform="scale(0.996264)"/>
       <use xlink:href="#CMR17-32" transform="translate(45.690477 0) scale(0.996264)"/>
       <use xlink:href="#CMR17-35" transform="translate(91.380954 0) scale(0.996264)"/>
       <use xlink:href="#SFRM3583-b0" transform="translate(137.071431 0) scale(0.356961)"/>
      </g>
     </g>
    </g>
    <g id="xtick_7">
     <g id="line2d_7">
      <path d="M 183.465443 172.19884 
L 183.465443 310.79884 
" clip-path="url(#p90552a7f47)" style="fill: none; stroke: #b0b0b0; stroke-width: 0.8; stroke-linecap: square"/>
     </g>
     <g id="text_7">
      <!-- 270° -->
      <g transform="translate(159.8 331.771799) scale(0.28 -0.28)">
       <defs>
        <path id="CMR17-37" d="M 2886 3955 
L 2886 4096 
L 1382 4096 
C 634 4096 621 4166 595 4288 
L 480 4288 
L 294 3104 
L 410 3104 
C 429 3226 474 3552 550 3673 
C 589 3724 1062 3724 1171 3724 
L 2579 3724 
L 1869 2670 
C 1395 1961 1069 1003 1069 166 
C 1069 89 1069 -128 1299 -128 
C 1530 -128 1530 89 1530 172 
L 1530 466 
C 1530 1514 1709 2204 2003 2644 
L 2886 3955 
z
" transform="scale(0.015625)"/>
       </defs>
       <use xlink:href="#CMR17-32" transform="scale(0.996264)"/>
       <use xlink:href="#CMR17-37" transform="translate(45.690477 0) scale(0.996264)"/>
       <use xlink:href="#CMR17-30" transform="translate(91.380954 0) scale(0.996264)"/>
       <use xlink:href="#SFRM3583-b0" transform="translate(137.071431 0) scale(0.356961)"/>
      </g>
     </g>
    </g>
    <g id="xtick_8">
     <g id="line2d_8">
      <path d="M 183.465443 172.19884 
L 281.470443 270.20384 
" clip-path="url(#p90552a7f47)" style="fill: none; stroke: #b0b0b0; stroke-width: 0.8; stroke-linecap: square"/>
     </g>
     <g id="text_8">
      <!-- 315° -->
      <g transform="translate(267.704495 287.076293) scale(0.28 -0.28)">
       <use xlink:href="#CMR17-33" transform="scale(0.996264)"/>
       <use xlink:href="#CMR17-31" transform="translate(45.690477 0) scale(0.996264)"/>
       <use xlink:href="#CMR17-35" transform="translate(91.380954 0) scale(0.996264)"/>
       <use xlink:href="#SFRM3583-b0" transform="translate(137.071431 0) scale(0.356961)"/>
      </g>
     </g>
    </g>
   </g>
   <g id="matplotlib.axis_2">
    <g id="ytick_1">
     <g id="line2d_9">
      <path d="M 216.631272 172.19884 
C 216.631272 167.843543 215.773374 163.530596 214.106674 159.506826 
C 212.439974 155.483057 209.996886 151.826717 206.917226 148.747057 
C 203.837566 145.667397 200.181226 143.224309 196.157456 141.557609 
C 192.133687 139.890909 187.82074 139.033011 183.465443 139.033011 
C 179.110146 139.033011 174.797199 139.890909 170.77343 141.557609 
C 166.74966 143.224309 163.09332 145.667397 160.01366 148.747057 
C 156.934001 151.826717 154.490912 155.483057 152.824212 159.506826 
C 151.157512 163.530596 150.299614 167.843543 150.299614 172.19884 
C 150.299614 176.554137 151.157512 180.867084 152.824212 184.890853 
C 154.490912 188.914623 156.934001 192.570963 160.01366 195.650622 
C 163.09332 198.730282 166.74966 201.173371 170.77343 202.84007 
C 174.797199 204.50677 179.110146 205.364669 183.465443 205.364669 
C 187.82074 205.364669 192.133687 204.50677 196.157456 202.84007 
C 200.181226 201.173371 203.837566 198.730282 206.917226 195.650622 
C 209.996886 192.570963 212.439974 188.914623 214.106674 184.890853 
C 215.773374 180.867084 216.631272 176.554137 216.631272 172.19884 
" clip-path="url(#p90552a7f47)" style="fill: none; stroke: #b0b0b0; stroke-width: 0.8; stroke-linecap: square"/>
     </g>
     <g id="text_9">
      <!-- $\mathdefault{0.5}$ -->
      <g transform="translate(214.106674 154.080945) scale(0.28 -0.28)">
       <defs>
        <path id="CMMI12-3a" d="M 1178 307 
C 1178 492 1024 620 870 620 
C 685 620 557 467 557 313 
C 557 128 710 0 864 0 
C 1050 0 1178 153 1178 307 
z
" transform="scale(0.015625)"/>
       </defs>
       <use xlink:href="#CMR17-30" transform="scale(0.996264)"/>
       <use xlink:href="#CMMI12-3a" transform="translate(45.690477 0) scale(0.996264)"/>
       <use xlink:href="#CMR17-35" transform="translate(72.787654 0) scale(0.996264)"/>
      </g>
     </g>
    </g>
    <g id="ytick_2">
     <g id="line2d_10">
      <path d="M 249.797101 172.19884 
C 249.797101 163.488246 248.081304 154.862352 244.747905 146.814813 
C 241.414505 138.767274 236.528328 131.454594 230.369009 125.295274 
C 224.209689 119.135955 216.897009 114.249778 208.84947 110.916378 
C 200.801931 107.582978 192.176037 105.867181 183.465443 105.867181 
C 174.75485 105.867181 166.128956 107.582978 158.081416 110.916378 
C 150.033877 114.249778 142.721198 119.135955 136.561878 125.295274 
C 130.402558 131.454594 125.516382 138.767274 122.182982 146.814813 
C 118.849582 154.862352 117.133785 163.488246 117.133785 172.19884 
C 117.133785 180.909433 118.849582 189.535327 122.182982 197.582866 
C 125.516382 205.630406 130.402558 212.943085 136.561878 219.102405 
C 142.721198 225.261725 150.033877 230.147901 158.081416 233.481301 
C 166.128956 236.814701 174.75485 238.530498 183.465443 238.530498 
C 192.176037 238.530498 200.801931 236.814701 208.84947 233.481301 
C 216.897009 230.147901 224.209689 225.261725 230.369009 219.102405 
C 236.528328 212.943085 241.414505 205.630406 244.747905 197.582866 
C 248.081304 189.535327 249.797101 180.909433 249.797101 172.19884 
" clip-path="url(#p90552a7f47)" style="fill: none; stroke: #b0b0b0; stroke-width: 0.8; stroke-linecap: square"/>
     </g>
     <g id="text_10">
      <!-- $\mathdefault{1.0}$ -->
      <g transform="translate(244.747905 141.388932) scale(0.28 -0.28)">
       <use xlink:href="#CMR17-31" transform="scale(0.996264)"/>
       <use xlink:href="#CMMI12-3a" transform="translate(45.690477 0) scale(0.996264)"/>
       <use xlink:href="#CMR17-30" transform="translate(72.787654 0) scale(0.996264)"/>
      </g>
     </g>
    </g>
    <g id="ytick_3">
     <g id="line2d_11">
      <path d="M 282.962931 172.19884 
C 282.962931 159.132949 280.389235 146.194108 275.389135 134.1228 
C 270.389036 122.051491 263.059771 111.082471 253.820791 101.843492 
C 244.581812 92.604512 233.612792 85.275247 221.541483 80.275148 
C 209.470174 75.275048 196.531333 72.701352 183.465443 72.701352 
C 170.399553 72.701352 157.460712 75.275048 145.389403 80.275148 
C 133.318094 85.275247 122.349075 92.604512 113.110095 101.843492 
C 103.871115 111.082471 96.541851 122.051491 91.541751 134.1228 
C 86.541651 146.194108 83.967956 159.132949 83.967956 172.19884 
C 83.967956 185.26473 86.541651 198.203571 91.541751 210.27488 
C 96.541851 222.346188 103.871115 233.315208 113.110095 242.554188 
C 122.349075 251.793167 133.318094 259.122432 145.389403 264.122532 
C 157.460712 269.122632 170.399553 271.696327 183.465443 271.696327 
C 196.531333 271.696327 209.470174 269.122632 221.541483 264.122532 
C 233.612792 259.122432 244.581812 251.793167 253.820791 242.554188 
C 263.059771 233.315208 270.389036 222.346188 275.389135 210.27488 
C 280.389235 198.203571 282.962931 185.26473 282.962931 172.19884 
" clip-path="url(#p90552a7f47)" style="fill: none; stroke: #b0b0b0; stroke-width: 0.8; stroke-linecap: square"/>
     </g>
     <g id="text_11">
      <!-- $\mathdefault{1.5}$ -->
      <g transform="translate(275.389135 128.696919) scale(0.28 -0.28)">
       <use xlink:href="#CMR17-31" transform="scale(0.996264)"/>
       <use xlink:href="#CMMI12-3a" transform="translate(45.690477 0) scale(0.996264)"/>
       <use xlink:href="#CMR17-35" transform="translate(72.787654 0) scale(0.996264)"/>
      </g>
     </g>
    </g>
    <g id="ytick_4">
     <g id="line2d_12">
      <path d="M 316.12876 172.19884 
C 316.12876 154.777653 312.697166 137.525865 306.030366 121.430786 
C 299.363566 105.335708 289.591213 90.710349 277.272574 78.391709 
C 264.953934 66.073069 250.328575 56.300717 234.233496 49.633917 
C 218.138418 42.967117 200.88663 39.535523 183.465443 39.535523 
C 166.044256 39.535523 148.792468 42.967117 132.69739 49.633917 
C 116.602312 56.300717 101.976952 66.073069 89.658312 78.391709 
C 77.339673 90.710349 67.56732 105.335708 60.90052 121.430786 
C 54.233721 137.525865 50.802127 154.777653 50.802127 172.19884 
C 50.802127 189.620027 54.233721 206.871815 60.90052 222.966893 
C 67.56732 239.061971 77.339673 253.687331 89.658312 266.005971 
C 101.976952 278.32461 116.602312 288.096963 132.69739 294.763763 
C 148.792468 301.430562 166.044256 304.862156 183.465443 304.862156 
C 200.88663 304.862156 218.138418 301.430562 234.233496 294.763763 
C 250.328575 288.096963 264.953934 278.32461 277.272574 266.005971 
C 289.591213 253.687331 299.363566 239.061971 306.030366 222.966893 
C 312.697166 206.871815 316.12876 189.620027 316.12876 172.19884 
" clip-path="url(#p90552a7f47)" style="fill: none; stroke: #b0b0b0; stroke-width: 0.8; stroke-linecap: square"/>
     </g>
     <g id="text_12">
      <!-- $\mathdefault{2.0}$ -->
      <g transform="translate(306.030366 116.004905) scale(0.28 -0.28)">
       <use xlink:href="#CMR17-32" transform="scale(0.996264)"/>
       <use xlink:href="#CMMI12-3a" transform="translate(45.690477 0) scale(0.996264)"/>
       <use xlink:href="#CMR17-30" transform="translate(72.787654 0) scale(0.996264)"/>
      </g>
     </g>
    </g>
   </g>
   <g id="line2d_13">
    <path d="M 183.465443 172.19884 
L 184.781615 172.032569 
L 186.035352 171.538999 
L 187.16586 170.733741 
L 188.115593 169.642398 
L 188.831787 168.299963 
L 189.267887 166.749982 
L 189.384838 165.043521 
L 189.152208 163.237932 
L 188.549119 161.395478 
L 187.564965 159.581809 
L 186.199892 157.864356 
L 184.465043 156.310655 
L 182.382543 154.98664 
L 179.985235 153.954952 
L 177.31616 153.273293 
L 175.895766 153.080019 
L 174.427796 152.992863 
L 172.920121 153.016971 
L 171.381068 153.156911 
L 169.819373 153.416636 
L 168.244143 153.799448 
L 166.6648 154.307972 
L 165.091038 154.944125 
L 163.532769 155.709098 
L 162.000068 156.603332 
L 160.503118 157.626505 
L 159.052156 158.777521 
L 157.657411 160.054502 
L 156.329052 161.454782 
L 155.077123 162.974915 
L 153.911489 164.610674 
L 152.841774 166.357062 
L 151.877309 168.20833 
L 151.027067 170.15799 
L 150.299614 172.19884 
L 149.703051 174.322989 
L 149.244964 176.521892 
L 148.93237 178.786376 
L 148.77167 181.106687 
L 148.768607 183.472525 
L 148.928218 185.873094 
L 149.254796 188.297148 
L 149.751855 190.733041 
L 150.422097 193.168785 
L 151.26738 195.592102 
L 152.288696 197.990488 
L 153.48615 200.351269 
L 154.858942 202.661669 
L 156.405353 204.908869 
L 158.122742 207.080075 
L 160.007538 209.162583 
L 162.055245 211.143846 
L 164.260444 213.011541 
L 166.616808 214.753635 
L 169.117116 216.358449 
L 171.753274 217.814726 
L 174.516338 219.111694 
L 177.396543 220.239127 
L 180.383344 221.187408 
L 183.465443 221.947583 
L 186.630843 222.511423 
L 189.866885 222.871472 
L 193.160308 223.021099 
L 196.497293 222.954544 
L 199.863531 222.666964 
L 203.244276 222.154469 
L 206.624413 221.414156 
L 209.988525 220.444146 
L 213.320958 219.243604 
L 216.605898 217.812763 
L 219.827439 216.152942 
L 222.969659 214.266557 
L 226.016697 212.157127 
L 228.952828 209.829277 
L 231.762538 207.288733 
L 234.430604 204.542314 
L 236.942168 201.597918 
L 239.282814 198.464501 
L 241.438642 195.152053 
L 243.396341 191.671569 
L 245.143261 188.035012 
L 246.667483 184.255274 
L 247.957884 180.34613 
L 249.004203 176.322189 
L 249.797101 172.19884 
L 250.328219 167.99219 
L 250.590229 163.719007 
L 250.576888 159.396647 
L 250.283079 155.042987 
L 249.704857 150.67635 
L 248.839476 146.315429 
L 247.68543 141.979208 
L 246.242468 137.686878 
L 244.511625 133.457755 
L 242.495226 129.311192 
L 240.196901 125.266497 
L 237.621585 121.342838 
L 234.775517 117.559161 
L 231.666228 113.9341 
L 228.302529 110.485885 
L 224.694488 107.232261 
L 220.853402 104.190396 
L 216.791766 101.376799 
L 212.523234 98.807237 
L 208.062575 96.496653 
L 203.425618 94.45909 
L 198.629205 92.707614 
L 193.691123 91.254245 
L 188.630042 90.109888 
L 183.465443 89.284267 
L 178.217544 88.785872 
L 172.90722 88.621901 
L 167.555922 88.79821 
L 162.185587 89.319272 
L 156.818551 90.188137 
L 151.477454 91.406403 
L 146.18515 92.974184 
L 140.964601 94.890096 
L 135.838788 97.15124 
L 130.830603 99.753197 
L 125.962752 102.690027 
L 121.257655 105.954274 
L 116.73734 109.53698 
L 112.423348 113.427707 
L 108.336629 117.614561 
L 104.497446 122.084225 
L 100.92528 126.822001 
L 97.638732 131.811855 
L 94.655436 137.03647 
L 91.991967 142.477306 
L 89.663761 148.114661 
L 87.685032 153.927749 
L 86.068695 159.894769 
L 84.826299 165.992991 
L 83.967956 172.19884 
L 83.502284 178.487989 
L 83.436351 184.835453 
L 83.775627 191.215689 
L 84.523943 197.602699 
L 85.683452 203.970135 
L 87.254602 210.291407 
L 89.236117 216.539795 
L 91.62498 222.688561 
L 94.416426 228.711065 
L 97.603941 234.580873 
L 101.179275 240.271878 
L 105.132453 245.758414 
L 109.451797 251.015367 
L 114.123963 256.01829 
L 119.133972 260.743514 
L 124.465259 265.168254 
L 130.099725 269.270721 
L 136.017797 273.03022 
L 142.198496 276.427251 
L 148.619507 279.443605 
L 155.257262 282.062453 
L 162.087024 284.268436 
L 169.082982 286.047741 
L 176.218344 287.388176 
L 183.465443 288.279242 
L 190.795842 288.712191 
L 198.180446 288.680085 
L 205.589621 288.177841 
L 212.993306 287.202272 
L 220.361141 285.75212 
L 227.662588 283.828085 
L 234.86706 281.432835 
L 241.944045 278.571021 
L 248.863238 275.249275 
L 255.594669 271.476202 
L 262.108829 267.262363 
L 268.376804 262.620255 
L 274.370395 257.564272 
L 280.062249 252.110667 
L 285.425977 246.277504 
L 290.436276 240.084594 
L 295.069044 233.553438 
L 299.301493 226.707147 
L 303.112258 219.570365 
L 306.481497 212.169179 
L 309.390989 204.531024 
L 311.824225 196.684587 
L 313.766498 188.659691 
L 315.204971 180.487188 
L 315.204971 180.487188 
" clip-path="url(#p90552a7f47)" style="fill: none; stroke: #1f77b4; stroke-width: 1.5; stroke-linecap: square"/>
   </g>
   <g id="patch_3">
    <path d="M 322.065443 172.19884 
C 322.065443 153.998055 318.480285 135.974249 311.515146 119.158916 
C 304.550007 102.343583 294.340342 87.063739 281.470443 74.19384 
C 268.600544 61.323941 253.3207 51.114275 236.505367 44.149137 
C 219.690034 37.183998 201.666228 33.59884 183.465443 33.59884 
C 165.264658 33.59884 147.240852 37.183998 130.425519 44.149137 
C 113.610186 51.114275 98.330342 61.323941 85.460443 74.19384 
C 72.590545 87.063739 62.380879 102.343583 55.41574 119.158916 
C 48.450601 135.974249 44.865443 153.998055 44.865443 172.19884 
C 44.865443 190.399625 48.450601 208.423431 55.41574 225.238763 
C 62.380879 242.054096 72.590545 257.333941 85.460443 270.20384 
C 98.330342 283.073738 113.610186 293.283404 130.425519 300.248543 
C 147.240852 307.213682 165.264658 310.79884 183.465443 310.79884 
C 201.666228 310.79884 219.690034 307.213682 236.505367 300.248543 
C 253.3207 293.283404 268.600544 283.073738 281.470443 270.20384 
C 294.340342 257.333941 304.550007 242.054096 311.515146 225.238763 
C 318.480285 208.423431 322.065443 190.399625 322.065443 172.19884 
" style="fill: none; stroke: #000000; stroke-width: 0.8; stroke-linejoin: miter; stroke-linecap: square"/>
   </g>
  </g>
 </g>
 <defs>
  <clipPath id="p90552a7f47">
   <path d="M 322.065443 172.19884 
C 322.065443 153.998055 318.480285 135.974249 311.515146 119.158916 
C 304.550007 102.343583 294.340342 87.063739 281.470443 74.19384 
C 268.600544 61.323941 253.3207 51.114275 236.505367 44.149137 
C 219.690034 37.183998 201.666228 33.59884 183.465443 33.59884 
C 165.264658 33.59884 147.240852 37.183998 130.425519 44.149137 
C 113.610186 51.114275 98.330342 61.323941 85.460443 74.19384 
C 72.590545 87.063739 62.380879 102.343583 55.41574 119.158916 
C 48.450601 135.974249 44.865443 153.998055 44.865443 172.19884 
C 44.865443 190.399625 48.450601 208.423431 55.41574 225.238763 
C 62.380879 242.054096 72.590545 257.333941 85.460443 270.20384 
C 98.330342 283.073738 113.610186 293.283404 130.425519 300.248543 
C 147.240852 307.213682 165.264658 310.79884 183.465443 310.79884 
C 201.666228 310.79884 219.690034 307.213682 236.505367 300.248543 
C 253.3207 293.283404 268.600544 283.073738 281.470443 270.20384 
C 294.340342 257.333941 304.550007 242.054096 311.515146 225.238763 
C 318.480285 208.423431 322.065443 190.399625 322.065443 172.19884 
M 183.465443 172.19884 
C 183.465443 172.19884 183.465443 172.19884 183.465443 172.19884 
C 183.465443 172.19884 183.465443 172.19884 183.465443 172.19884 
C 183.465443 172.19884 183.465443 172.19884 183.465443 172.19884 
C 183.465443 172.19884 183.465443 172.19884 183.465443 172.19884 
C 183.465443 172.19884 183.465443 172.19884 183.465443 172.19884 
C 183.465443 172.19884 183.465443 172.19884 183.465443 172.19884 
C 183.465443 172.19884 183.465443 172.19884 183.465443 172.19884 
C 183.465443 172.19884 183.465443 172.19884 183.465443 172.19884 
C 183.465443 172.19884 183.465443 172.19884 183.465443 172.19884 
C 183.465443 172.19884 183.465443 172.19884 183.465443 172.19884 
C 183.465443 172.19884 183.465443 172.19884 183.465443 172.19884 
C 183.465443 172.19884 183.465443 172.19884 183.465443 172.19884 
C 183.465443 172.19884 183.465443 172.19884 183.465443 172.19884 
C 183.465443 172.19884 183.465443 172.19884 183.465443 172.19884 
C 183.465443 172.19884 183.465443 172.19884 183.465443 172.19884 
C 183.465443 172.19884 183.465443 172.19884 183.465443 172.19884 
z
"/>
  </clipPath>
 </defs>
</svg>
